<svg width="14" height="15" viewBox="0 0 14 15" fill="none" xmlns="http://www.w3.org/2000/svg">
<path id="Vector" d="M12.8088 6.19194L1.84186 0.155847C1.65279 0.0518574 1.44229 0 1.23179 0C1.2275 0 1.22329 0.000550211 1.21908 0.000550211C1.19079 0.000825317 1.16258 0.00220085 1.13443 0.00433291C1.12172 0.00529578 1.10908 0.00660254 1.09636 0.00797806C1.07436 0.0103165 1.05243 0.0132738 1.03058 0.0167814C1.02265 0.0180882 1.01465 0.0185009 1.00672 0.0199452L1.00715 0.0204954C0.870503 0.0447734 0.737145 0.0911287 0.613216 0.160387C0.233644 0.372424 0 0.763005 0 1.1855V13.2576C0 13.6801 0.233644 14.0707 0.613216 14.2827C0.737074 14.352 0.870432 14.3984 1.00707 14.4227L1.00672 14.4232C1.01386 14.4245 1.02108 14.4249 1.02815 14.426C1.05165 14.4298 1.07522 14.433 1.09886 14.4354C1.11072 14.4366 1.1225 14.4379 1.13436 14.4388C1.16215 14.4409 1.18986 14.4422 1.21772 14.4425C1.22243 14.4426 1.22708 14.4431 1.23179 14.4431C1.44229 14.4431 1.65279 14.3913 1.84186 14.2873L12.8088 8.25111C13.1922 8.04003 13.4288 7.64746 13.4288 7.22207C13.4288 7.22207 13.4288 7.22187 13.4288 7.2218C13.4288 7.2218 13.4288 7.22159 13.4288 7.22152C13.4288 7.22152 13.4288 7.22132 13.4288 7.22125C13.4288 7.22125 13.4288 7.22104 13.4288 7.22097C13.4288 6.79566 13.1922 6.40308 12.8088 6.19194ZM8.47174 4.99324L7.38131 6.37062L4.60702 2.86605L8.47174 4.99324ZM12.277 7.35543L4.60702 11.577L9.40946 5.5105L12.277 7.08872C12.3266 7.11602 12.3575 7.16719 12.3575 7.222C12.3574 7.27703 12.3265 7.32819 12.277 7.35543Z" fill="white"/>
</svg>
