<?xml version="1.0" encoding="UTF-8" standalone="no"?>
<!-- Creator: CorelDRAW 2018 (64 Bit) -->

<svg
   xml:space="preserve"
   width="135mm"
   height="135mm"
   version="1.1"
   style="clip-rule:evenodd;fill-rule:evenodd;image-rendering:optimizeQuality;shape-rendering:geometricPrecision;text-rendering:geometricPrecision"
   viewBox="0 0 5812.3578 5812.3546"
   id="svg11"
   sodipodi:docname="favicon.svg"
   inkscape:version="1.3 (0e150ed6c4, 2023-07-21)"
   xmlns:inkscape="http://www.inkscape.org/namespaces/inkscape"
   xmlns:sodipodi="http://sodipodi.sourceforge.net/DTD/sodipodi-0.dtd"
   xmlns="http://www.w3.org/2000/svg"
   xmlns:svg="http://www.w3.org/2000/svg"><sodipodi:namedview
   id="namedview11"
   pagecolor="#505050"
   bordercolor="#eeeeee"
   borderopacity="1"
   inkscape:showpageshadow="0"
   inkscape:pageopacity="0"
   inkscape:pagecheckerboard="0"
   inkscape:deskcolor="#d1d1d1"
   inkscape:document-units="mm"
   inkscape:zoom="0.48136657"
   inkscape:cx="390.55475"
   inkscape:cy="385.36121"
   inkscape:window-width="1920"
   inkscape:window-height="1008"
   inkscape:window-x="0"
   inkscape:window-y="0"
   inkscape:window-maximized="1"
   inkscape:current-layer="_2955460227664" />&#10; <defs
   id="defs1">&#10;  <style
   type="text/css"
   id="style1">&#10;   <![CDATA[
    .str0 {stroke:#FEFEFE;stroke-width:8.61;stroke-miterlimit:22.9256}
    .fil0 {fill:#FEFEFE}
    .fil1 {fill:#BF013D}
    .fil2 {fill:white}
    .fil4 {fill:#BF013D;fill-rule:nonzero}
    .fil3 {fill:#BF013D;fill-rule:nonzero}
   ]]>&#10;  </style>&#10; &#10;    &#10;    &#10;    &#10;    &#10;    &#10;   </defs>&#10; <g
   id="Camada_x0020_1"
   inkscape:label="Camada 1"
   inkscape:groupmode="layer">&#10;  <metadata
   id="CorelCorpID_0Corel-Layer" />&#10;  &#10;  <g
   id="_2955460227664">&#10;   <path
   id="polygon2"
   class="fil1"
   d="M 2470.1195,507.94294 1162.0094,1816.0753 v 3488.3381 h 1744.169 l 581.3675,-581.3675 581.6566,0.2225 292.5304,0.1335 -2.0469,-2.2916 c 15.44,0 30.5881,-1.2354 45.3881,-3.5154 3.9198,-0.65 7.8497,-1.3314 11.7697,-2.0914 21.76,-4.33 42.6318,-11.1186 62.3418,-20.0686 3.57,-1.58 7.1407,-3.2683 10.5905,-5.0283 3.57,-1.75 7.0961,-3.61 10.5461,-5.54 5.38,-2.98 10.6913,-6.1536 15.8413,-9.4336 1.99,-1.29 3.9883,-2.576 5.9183,-3.9158 3.86,-2.57 7.597,-5.2597 11.347,-8.0097 l 0.044,-0.067 c 11.23,-8.3598 21.7636,-17.5363 31.5936,-27.3663 52.58,-52.5298 85.1606,-125.0631 85.2806,-205.2029 V 2978.8769 h -581.3675 l -436.0589,436.0144 -436.0367,-436.0144 h 872.0956 L 2907.2241,1816.0753 h -1.0457 v -436.059 l -436.0589,436.059 z" />&#10;   &#10;   &#10;  </g>&#10; </g>&#10;</svg>
