<?xml version="1.0" encoding="UTF-8" standalone="no"?>
<!-- Created with Inkscape (http://www.inkscape.org/) -->

<svg
   width="210mm"
   height="297mm"
   viewBox="0 0 210 297"
   version="1.1"
   id="svg1"
   xml:space="preserve"
   inkscape:version="1.3 (0e150ed6c4, 2023-07-21)"
   sodipodi:docname="gamepad-with-arrow.svg"
   xmlns:inkscape="http://www.inkscape.org/namespaces/inkscape"
   xmlns:sodipodi="http://sodipodi.sourceforge.net/DTD/sodipodi-0.dtd"
   xmlns="http://www.w3.org/2000/svg"
   xmlns:svg="http://www.w3.org/2000/svg"><sodipodi:namedview
     id="namedview1"
     pagecolor="#fcfcfc"
     bordercolor="#8f8f8f"
     borderopacity="1"
     inkscape:showpageshadow="0"
     inkscape:pageopacity="0"
     inkscape:pagecheckerboard="0"
     inkscape:deskcolor="#d1d1d1"
     inkscape:document-units="mm"
     inkscape:zoom="0.34332837"
     inkscape:cx="-125.24453"
     inkscape:cy="1160.6964"
     inkscape:window-width="1920"
     inkscape:window-height="1008"
     inkscape:window-x="0"
     inkscape:window-y="0"
     inkscape:window-maximized="1"
     inkscape:current-layer="layer1" /><defs
     id="defs1" /><g
     inkscape:label="Camada 1"
     inkscape:groupmode="layer"
     id="layer1"><g
       style="display:none;fill:#000000"
       id="g1"
       transform="matrix(-8.8194444,0,0,-8.8194444,210.83333,323.45833)"><path
         d="M 12,4 V 20 M 12,4 8,8 m 4,-4 4,4"
         stroke="#000000"
         stroke-width="2"
         stroke-linecap="round"
         stroke-linejoin="round"
         id="path1"
         style="fill:#000000" /></g><g
       style="fill:#bf013d;fill-opacity:1"
       id="g2"
       transform="matrix(8.399562,2.688858,-2.688858,8.399562,52.214134,-67.316116)"><path
         fill-rule="evenodd"
         clip-rule="evenodd"
         d="m 15.0005,3.25 c 0.4142,0 0.75,0.33579 0.75,0.75 v 1 c 0,0.9665 -0.7835,1.75 -1.75,1.75 h -1 c -0.1381,0 -0.25,0.11193 -0.25,0.25 v 1 h 0.4216 c 2.5391,0 3.8086,0 4.7847,0.61367 0.247,0.15531 0.4763,0.33718 0.6837,0.54236 0.8198,0.81076 1.1088,2.04697 1.6867,4.51927 l 1.0224,4.3738 c 0.3595,1.5375 -0.5959,3.0752 -2.1336,3.4339 -1.2967,0.3026 -2.6305,-0.3303 -3.2162,-1.5261 L 15.8792,19.7106 C 15.3414,18.6127 14.2255,17.9167 13.003,17.9167 h -2.005 c -1.2225,0 -2.3384,0.696 -2.87616,1.7939 L 8.00121,19.9569 C 7.41551,21.1527 6.08168,21.7856 4.78499,21.483 3.24734,21.1243 2.29194,19.5866 2.65136,18.0491 L 3.6738,13.6753 C 4.25175,11.203 4.54073,9.96679 5.36047,9.15603 5.56793,8.95085 5.79722,8.76898 6.04424,8.61367 7.02032,8 8.28983,8 10.8288,8 h 0.4217 V 7 c 0,-0.9665 0.7835,-1.75 1.75,-1.75 h 1 c 0.1381,0 0.25,-0.11193 0.25,-0.25 V 4 c 0,-0.41421 0.3358,-0.75 0.75,-0.75 z m 1,8.75 c 0,0.5523 -0.4477,1 -1,1 -0.5523,0 -1,-0.4477 -1,-1 0,-0.5523 0.4477,-1 1,-1 0.5523,0 1,0.4477 1,1 z M 8.50049,11.25 c 0.41421,0 0.75,0.3358 0.75,0.75 v 0.75 h 0.75001 c 0.4142,0 0.75,0.3358 0.75,0.75 0,0.4142 -0.3358,0.75 -0.75,0.75 H 9.25049 V 15 c 0,0.4142 -0.33579,0.75 -0.75,0.75 -0.41422,0 -0.75,-0.3358 -0.75,-0.75 v -0.75 h -0.75 c -0.41422,0 -0.75,-0.3358 -0.75,-0.75 0,-0.4142 0.33578,-0.75 0.75,-0.75 h 0.75 V 12 c 0,-0.4142 0.33578,-0.75 0.75,-0.75 z m 8.50001,4.25 c 0.5523,0 1,-0.4477 1,-1 0,-0.5523 -0.4477,-1 -1,-1 -0.5523,0 -1,0.4477 -1,1 0,0.5523 0.4477,1 1,1 z"
         fill="#1c274c"
         id="path1-6"
         style="fill:#bf013d;fill-opacity:1" /></g><g
       style="fill:#bf013d;fill-opacity:1"
       id="g3"
       transform="matrix(-8.8194444,0,0,-8.8194444,210.83333,323.45833)"><path
         d="m 12,4 0,13.980081 M 12,4 8,8 m 4,-4 4,4"
         stroke="#000000"
         stroke-width="2"
         stroke-linecap="round"
         stroke-linejoin="round"
         id="path2"
         style="fill:none;fill-opacity:1;stroke:#bf013d;stroke-opacity:1"
         sodipodi:nodetypes="cccccc" /></g></g></svg>
