<?xml version="1.0" encoding="UTF-8" standalone="no"?>
<!-- Creator: CorelDRAW 2018 (64 Bit) -->

<svg
   xml:space="preserve"
   width="259.435mm"
   height="153.172mm"
   version="1.1"
   style="shape-rendering:geometricPrecision; text-rendering:geometricPrecision; image-rendering:optimizeQuality; fill-rule:evenodd; clip-rule:evenodd"
   viewBox="0 0 11169.85 6594.74"
   id="svg11"
   sodipodi:docname="TGD_logo_RGB.svg"
   inkscape:version="1.3 (0e150ed6c4, 2023-07-21)"
   xmlns:inkscape="http://www.inkscape.org/namespaces/inkscape"
   xmlns:sodipodi="http://sodipodi.sourceforge.net/DTD/sodipodi-0.dtd"
   xmlns="http://www.w3.org/2000/svg"
   xmlns:svg="http://www.w3.org/2000/svg"><sodipodi:namedview
   id="namedview11"
   pagecolor="#505050"
   bordercolor="#eeeeee"
   borderopacity="1"
   inkscape:showpageshadow="0"
   inkscape:pageopacity="0"
   inkscape:pagecheckerboard="0"
   inkscape:deskcolor="#d1d1d1"
   inkscape:document-units="mm"
   inkscape:zoom="0.96273313"
   inkscape:cx="490.27086"
   inkscape:cy="289.28058"
   inkscape:window-width="1920"
   inkscape:window-height="1008"
   inkscape:window-x="0"
   inkscape:window-y="0"
   inkscape:window-maximized="1"
   inkscape:current-layer="_2955460227664" />&#10; <defs
   id="defs1">&#10;  <style
   type="text/css"
   id="style1">&#10;   <![CDATA[
    .str0 {stroke:#FEFEFE;stroke-width:8.61;stroke-miterlimit:22.9256}
    .fil0 {fill:#FEFEFE}
    .fil1 {fill:#BF013D}
    .fil2 {fill:white}
    .fil4 {fill:#BF013D;fill-rule:nonzero}
    .fil3 {fill:#BF013D;fill-rule:nonzero}
   ]]>&#10;  </style>&#10; &#10;    &#10;    &#10;    &#10;    &#10;    &#10;   </defs>&#10; <g
   id="Camada_x0020_1"
   inkscape:label="Camada 1">&#10;  <metadata
   id="CorelCorpID_0Corel-Layer" />&#10;  &#10;  <g
   id="_2955460227664">&#10;   <path
   id="polygon2"
   class="fil1"
   d="M 2209.708 914.87702 L 901.59788 2223.0094 L 901.59788 5711.3475 L 2645.7669 5711.3475 L 3227.1344 5129.98 L 3808.791 5130.2025 L 4101.3214 5130.336 L 4099.2745 5128.0444 C 4114.7145 5128.0444 4129.8626 5126.809 4144.6626 5124.529 C 4148.5824 5123.879 4152.5123 5123.1976 4156.4323 5122.4376 C 4178.1923 5118.1076 4199.0641 5111.319 4218.7741 5102.369 C 4222.3441 5100.789 4225.9148 5099.1007 4229.3646 5097.3407 C 4232.9346 5095.5907 4236.4607 5093.7307 4239.9107 5091.8007 C 4245.2907 5088.8207 4250.602 5085.6471 4255.752 5082.3671 C 4257.742 5081.0771 4259.7403 5079.7911 4261.6703 5078.4513 C 4265.5303 5075.8813 4269.2673 5073.1916 4273.0173 5070.4416 L 4273.0618 5070.3748 C 4284.2918 5062.015 4294.8254 5052.8385 4304.6554 5043.0085 C 4357.2354 4990.4787 4389.816 4917.9454 4389.936 4837.8056 L 4389.936 3385.811 L 3808.5685 3385.811 L 3372.5096 3821.8254 L 2936.4729 3385.811 L 3808.5685 3385.811 L 2646.8126 2223.0094 L 2645.7669 2223.0094 L 2645.7669 1786.9504 L 2209.708 2223.0094 L 2209.708 914.87702 z " />&#10;   <g
   id="g8">&#10;    <path
   class="fil3"
   d="M5524.27 5238.23l0 33.69 -86.64 0 0 -33.69c0,-4.82 -1.73,-8.95 -5.21,-12.44 -3.48,-3.47 -7.62,-5.21 -12.43,-5.21l-369.02 0c-4.81,0 -8.96,1.74 -12.43,5.21 -3.49,3.49 -5.21,7.62 -5.21,12.44l0 123.53c0,4.82 1.72,8.96 5.21,12.44 3.47,3.48 7.62,5.21 12.43,5.21l369.02 0c28.88,0 53.47,10.17 73.8,30.48 20.31,20.33 30.48,44.92 30.48,73.8l0 123.54c0,28.88 -10.17,53.48 -30.48,73.8 -20.33,20.33 -44.93,30.48 -73.8,30.48l-369.02 0c-28.88,0 -53.48,-10.15 -73.8,-30.48 -20.33,-20.32 -30.48,-44.93 -30.48,-73.8l0 -33.69 86.64 0 0 33.69c0,4.81 1.72,8.96 5.21,12.43 3.47,3.49 7.62,5.22 12.43,5.22l369.02 0c4.81,0 8.95,-1.74 12.43,-5.22 3.48,-3.47 5.21,-7.62 5.21,-12.43l0 -123.54c0,-4.81 -1.73,-8.95 -5.21,-12.43 -3.48,-3.48 -7.62,-5.21 -12.43,-5.21l-369.02 0c-28.88,0 -53.48,-10.16 -73.8,-30.49 -20.33,-20.32 -30.48,-44.92 -30.48,-73.8l0 -123.53c0,-28.89 10.15,-53.47 30.48,-73.8 20.32,-20.32 44.92,-30.49 73.8,-30.49l369.02 0c28.88,0 53.47,10.17 73.8,30.49 20.31,20.33 30.48,44.92 30.48,73.8z"
   id="path5" />&#10;    <polygon
   class="fil3"
   points="5977.51,5133.94 6555.08,5133.94 6555.08,5220.58 6309.61,5220.58 6309.61,5711.51 6222.97,5711.51 6222.97,5220.58 5977.51,5220.58 "
   id="polygon6" />&#10;    <path
   class="fil3"
   d="M7500.86 5607.23l0 -473.29 86.63 0 0 473.29c0,28.88 -10.16,53.48 -30.48,73.8 -20.33,20.33 -44.91,30.48 -73.8,30.48l-369 0c-28.88,0 -53.48,-10.15 -73.8,-30.48 -20.33,-20.32 -30.48,-44.93 -30.48,-73.8l0 -473.29 86.63 0 0 473.29c0,4.81 1.74,8.96 5.22,12.43 3.47,3.49 7.62,5.22 12.43,5.22l369 0c4.82,0 8.96,-1.74 12.44,-5.22 3.47,-3.47 5.21,-7.62 5.21,-12.43z"
   id="path6" />&#10;    <path
   class="fil3"
   d="M8073.63 5133.94l473.29 0c28.89,0 53.47,10.17 73.8,30.49 20.32,20.33 30.49,44.92 30.49,73.8l0 369c0,28.88 -10.17,53.48 -30.49,73.8 -20.33,20.33 -44.91,30.48 -73.8,30.48l-473.29 0 0 -577.58zm490.94 473.29l0 0 0 -369c0,-4.82 -1.74,-8.95 -5.21,-12.44 -3.49,-3.47 -7.62,-5.21 -12.44,-5.21l-369 0c-4.81,0 -8.96,1.74 -12.43,5.21 -3.49,3.49 -5.22,7.62 -5.22,12.44l0 369c0,4.81 1.74,8.96 5.22,12.43 3.47,3.49 7.62,5.22 12.43,5.22l369 0c4.82,0 8.96,-1.74 12.44,-5.22 3.47,-3.47 5.21,-7.62 5.21,-12.43z"
   id="path7" />&#10;    <polygon
   class="fil3"
   points="9138.13,5711.51 9138.13,5133.94 9224.78,5133.94 9224.78,5711.51 "
   id="polygon7" />&#10;    <path
   class="fil3"
   d="M9812.77 5133.94l369.01 0c28.89,0 53.47,10.17 73.8,30.49 20.32,20.33 30.48,44.92 30.48,73.8l0 369c0,28.88 -10.16,53.48 -30.48,73.8 -20.33,20.33 -44.91,30.48 -73.8,30.48l-369.01 0c-28.88,0 -53.48,-10.15 -73.8,-30.48 -20.33,-20.32 -30.48,-44.93 -30.48,-73.8l0 -369c0,-28.89 10.15,-53.47 30.48,-73.8 20.32,-20.32 44.92,-30.49 73.8,-30.49zm0 490.95l0 0 369.01 0c4.82,0 8.96,-1.74 12.44,-5.22 3.47,-3.47 5.21,-7.62 5.21,-12.43l0 -369c0,-4.82 -1.74,-8.95 -5.21,-12.44 -3.48,-3.47 -7.62,-5.21 -12.44,-5.21l-369.01 0c-4.81,0 -8.96,1.74 -12.43,5.21 -3.49,3.49 -5.22,7.62 -5.22,12.44l0 369c0,4.81 1.73,8.96 5.22,12.43 3.47,3.49 7.62,5.22 12.43,5.22z"
   id="path8" />&#10;   </g>&#10;   <g
   id="g11">&#10;    <path
   class="fil4"
   d="M5380.3 2970.11l418.43 0c3.4,0 6.15,2.75 6.15,6.15l0 418.43c0,3.4 -2.75,6.15 -6.15,6.15l-418.43 0c-3.39,0 -6.15,2.76 -6.15,6.15l0 993.03c0,3.4 2.76,6.15 6.15,6.15l581.37 0c3.4,0 6.15,2.76 6.15,6.15l0 419.49c0,3.4 -2.75,6.15 -6.15,6.15l-816.02 0c-112.26,0 -203.27,-91 -203.27,-203.27l0 -2103.73 431.77 0 0 433c0,3.39 2.76,6.15 6.15,6.15z"
   id="path9" />&#10;    <path
   class="fil4"
   d="M9868.01 2538.31l430.73 0 0 2299.64 -1527.37 0c-109.17,0 -197.68,-88.5 -197.68,-197.67l0 -1472.51c0,-109.17 88.5,-197.67 197.68,-197.67l1096.64 0 0 -431.79zm0 1769.61l0 0 0 -808.84c0,-54.26 -43.98,-98.25 -98.24,-98.25l-667.1 0c-54.26,0 -98.25,43.98 -98.25,98.25l0 808.84c0,54.26 43.99,98.25 98.25,98.25l667.1 0c54.26,0 98.24,-43.98 98.24,-98.25z"
   id="path10" />&#10;    <path
   class="fil4"
   d="M7692.83 2823.92l0 139.96 -1096.22 5.25c-111.92,0.53 -202.37,91.42 -202.37,203.34l0 743.65c0,112.3 91.04,203.35 203.35,203.35l1089.19 0 1.1 188.69c0.33,56.37 -45.25,102.25 -101.62,102.28l-763.28 0.22 0 0.06 -431.87 0.2 0 229.42c0,112.31 91.04,203.35 203.35,203.35l1323.12 0c111.78,0 202.43,-90.55 202.55,-202.33l0.74 -520.12 0.38 -419.24 0.01 0 0 -878.09 -428.43 0zm-98.81 865.95l0 0 -668.55 -1.51c-55.62,-0.13 -100.64,-45.25 -100.64,-100.86l0 -85.8c0,-55.7 45.16,-100.86 100.86,-100.86l668.56 0c55.7,0 100.86,45.16 100.86,100.86l0 87.31c0,55.79 -45.3,100.99 -101.09,100.86z"
   id="path11" />&#10;   </g>&#10;  </g>&#10; </g>&#10;</svg>
