<svg width="15" height="15" viewBox="0 0 15 15" fill="none" xmlns="http://www.w3.org/2000/svg">
<g id="playstation 1" clip-path="url(#clip0_57_13)">
<g id="Group">
<g id="Group_2">
<g id="Group_3">
<path id="Vector" d="M12.1421 7.89502C11.865 7.89502 11.5911 7.93557 11.3279 8.01552L8.80737 8.71331V11.163L12.6209 10.1073L12.8535 10.9475L8.80737 12.0676V14.5173L12.951 13.3703L12.9624 13.3669C13.5229 13.1953 14.0262 12.8414 14.3799 12.3706C14.7459 11.8833 14.9393 11.3029 14.9393 10.6921C14.9393 9.1498 13.6845 7.89502 12.1421 7.89502Z" fill="white"/>
</g>
</g>
<g id="Group_4">
<g id="Group_5">
<path id="Vector_2" d="M10.069 1.55792L4.43848 0V14.0319L7.9355 15V4.15649C7.9355 3.91614 8.13106 3.72059 8.37141 3.72059C8.61176 3.72059 8.80731 3.91614 8.80731 4.15649V7.54761H9.24325C9.32212 7.54761 9.40031 7.54459 9.47769 7.53867C9.52928 7.53475 9.58052 7.52953 9.63135 7.52303C9.70764 7.51333 9.78302 7.50076 9.85743 7.48547C9.90703 7.4753 9.95622 7.46391 10.0049 7.45134C10.0293 7.44507 10.0535 7.43848 10.0776 7.43159C11.3318 7.07461 12.2591 5.93367 12.2936 4.57477C12.2943 4.54863 12.2946 4.52244 12.2946 4.49613C12.2947 3.13462 11.3801 1.92656 10.069 1.55792Z" fill="white"/>
</g>
</g>
<g id="Group_6">
<g id="Group_7">
<path id="Vector_3" d="M3.56655 7.71429L2.17914 8.09835C1.91236 8.16511 1.65663 8.27117 1.41891 8.4137C0.0961284 9.20682 -0.334799 10.9283 0.458355 12.2511C0.772476 12.7749 1.23686 13.1733 1.80127 13.4029C2.13774 13.5398 2.50017 13.6093 2.86208 13.6093C3.08681 13.6093 3.3114 13.5825 3.52934 13.5285L3.56652 13.5182V11.0687L2.3785 11.3975L2.14588 10.5573L3.56652 10.164V7.71429H3.56655Z" fill="white"/>
</g>
</g>
</g>
</g>
<defs>
<clipPath id="clip0_57_13">
<rect width="15" height="15" fill="white"/>
</clipPath>
</defs>
</svg>
