<svg width="15" height="13" viewBox="0 0 15 13" fill="none" xmlns="http://www.w3.org/2000/svg">
<path d="M11.1894 0.09375C9.09625 0.09375 7.38875 1.77875 7.3725 3.85625L4.99563 7.24812C4.3325 7.18812 3.76063 7.325 3.255 7.63187L0 6.32125V9.90062L1.925 10.6712C2.20312 11.9456 3.34875 12.9062 4.70437 12.9062C6.17812 12.9062 7.39937 11.7794 7.53375 10.3444L11.1931 7.6825C13.2925 7.6825 15 5.98812 15 3.88687L14.9994 3.88625C14.9994 1.795 13.2919 0.09375 11.1894 0.09375ZM4.70437 12.1512C3.9 12.1512 3.2075 11.7006 2.85562 11.0437C3.19687 11.1737 3.54188 11.3169 3.88375 11.4506C4.73813 11.8006 5.70875 11.3837 6.05 10.5331C6.395 9.6825 5.97625 8.7225 5.12312 8.38187L4.2525 8.03187C4.40312 7.99812 4.55375 7.98187 4.70437 7.98187C5.86625 7.98187 6.79688 8.90875 6.79688 10.0662C6.79688 11.2244 5.86625 12.1512 4.70437 12.1512ZM11.1931 6.42875C9.78 6.42875 8.63188 5.29437 8.63188 3.88687C8.63188 2.48562 9.77688 1.345 11.1931 1.345C12.5963 1.345 13.7444 2.48562 13.7444 3.88687C13.7444 5.29812 12.5956 6.4325 11.1931 6.42875Z" fill="white"/>
<path d="M11.2 1.84753C10.0718 1.84753 9.15808 2.75816 9.15808 3.88191C9.15808 5.00566 10.0687 5.91629 11.2 5.91629C12.3212 5.91629 13.2418 5.00878 13.2418 3.88191C13.2418 2.75503 12.3212 1.84753 11.2 1.84753Z" fill="white"/>
</svg>
